inDegrees=no
num_controls=7
num_derivatives=13
num_iterations=144
num_multipliers=7
num_parameters=0
num_slacks=7
num_states=26
objective=5.324925
objective_accelerations=0.723194
objective_balance=0.021810
objective_effort=0.176684
objective_height=4.306286
objective_ligament=0.096952
solver_duration=1580.818892
status=Solve_Succeeded
success=true
DataType=double
version=3
OpenSimVersion=4.4-2022-07-23-0e9fedc
endheader
time	/jointset/ground_pelvis/pelvis_tilt/value	/jointset/ground_pelvis/pelvis_tx/value	/jointset/ground_pelvis/pelvis_ty/value	/jointset/hip_l/hip_flexion_l/value	/jointset/hip_l/hip_adduction_l/value	/jointset/hip_l/hip_rotation_l/value	/jointset/back/lumbar_extension/value	/jointset/patellofemoral_l/patellar_flexion_l/value	/jointset/knee_l/knee_flexion_l/value	/jointset/knee_l/knee_adduction_l/value	/jointset/knee_l/knee_rotation_l/value	/jointset/ankle_l/ankle_angle_l/value	/jointset/subtalar_l/subtalar_angle_l/value	/jointset/ground_pelvis/pelvis_tilt/speed	/jointset/ground_pelvis/pelvis_tx/speed	/jointset/ground_pelvis/pelvis_ty/speed	/jointset/hip_l/hip_flexion_l/speed	/jointset/hip_l/hip_adduction_l/speed	/jointset/hip_l/hip_rotation_l/speed	/jointset/back/lumbar_extension/speed	/jointset/patellofemoral_l/patellar_flexion_l/speed	/jointset/knee_l/knee_flexion_l/speed	/jointset/knee_l/knee_adduction_l/speed	/jointset/knee_l/knee_rotation_l/speed	/jointset/ankle_l/ankle_angle_l/speed	/jointset/subtalar_l/subtalar_angle_l/speed	/forceset/tau_hip_flexion_l	/forceset/tau_hip_adduction_l	/forceset/tau_hip_rotation_l	/forceset/tau_knee_flexion_l	/forceset/tau_ankle_angle_l	/forceset/tau_subtalar_angle_l	/forceset/tau_lumbar_extension	lambda_cid13_p0	lambda_cid13_p1	lambda_cid13_p2	lambda_cid13_p3	lambda_cid13_p4	lambda_cid13_p5	lambda_cid14_p0	/jointset/ground_pelvis/pelvis_tilt/accel	/jointset/ground_pelvis/pelvis_tx/accel	/jointset/ground_pelvis/pelvis_ty/accel	/jointset/hip_l/hip_flexion_l/accel	/jointset/hip_l/hip_adduction_l/accel	/jointset/hip_l/hip_rotation_l/accel	/jointset/back/lumbar_extension/accel	/jointset/patellofemoral_l/patellar_flexion_l/accel	/jointset/knee_l/knee_flexion_l/accel	/jointset/knee_l/knee_adduction_l/accel	/jointset/knee_l/knee_rotation_l/accel	/jointset/ankle_l/ankle_angle_l/accel	/jointset/subtalar_l/subtalar_angle_l/accel	gamma_cid13_p0	gamma_cid13_p1	gamma_cid13_p2	gamma_cid13_p3	gamma_cid13_p4	gamma_cid13_p5	gamma_cid14_p0
0.5	-0.2167090045066535	0.03577746740022322	0.7735423960408544	0.9814994879383102	-0.3634379260365793	-0.005400349731007777	-0.3999463428753885	0.9553456411461909	0.9553456411462092	-0.03250767944583749	-0.1745258628434626	0.3188382300726693	0.1657512426828533	-0.7503395794530519	-0.1662286885930192	-0.5183707243383884	2.371707888607044	0.03411750142191976	0.5357489852277652	-0.3096108087057566	1.987022166453571	1.987022166453593	0.3028122324656818	-9.400491440242592e-05	0.5300518643716093	0.2706629535705716	-0.1014434688102918	0.02347866493003642	-0.001283567751515869	-0.1992347667941838	-0.003491965573263303	0.02113590112458894	0.1146747396857544	-24.78034120487568	-4.392771596128283	-0.09205427776849988	-0.7939673024663008	-439.5240329121987	-71.26258220108681	-5.002871744334404	0.2526825927793333	0.3923536800762855	-0.4646994768332621	-1.135710039698021	0.1067299900545659	-0.7317929349581861	1.384393619799111	-1.595681750439804	-1.59568175043982	-0.2186534686946508	0.0122297244054097	-0.8687824141942583	0.09449068450846	-4.796466499205698e-07	-5.18758572386788e-07	6.376844105420027e-06	3.062068367648886e-07	-1.286761561215829e-06	-1.37324305110749e-06	-8.174207152587511e-07
0.51	-0.2241976161033453	0.03413510833314365	0.768336788704867	1.005154662032441	-0.3630941195490776	-7.38199377206867e-05	-0.4029740561412412	0.9751323435767422	0.9751323435768496	-0.02950017711284305	-0.1745264001583442	0.3240936384677428	0.1684579471545319	-0.7472735607022232	-0.1622207354704164	-0.5226281904635582	2.358993063651094	0.0346416151099708	0.5295051156397155	-0.2958980950417787	1.970031003140654	1.970031003140678	0.298683088390137	-3.329542615174925e-05	0.5209555427090453	0.2706297785511528	-0.1062478775387192	0.02432780238796734	-0.001814169466998106	-0.2014287651078822	-0.005431439833536815	0.02173938342603235	0.1183442293633171	-25.54245955786474	-4.459651566690532	-0.1519507662464732	-0.6133933246655981	-442.8706848841306	-71.5305748452233	-4.372986758274481	0.3499075550554286	0.4084404870563025	-0.3881406125911204	-1.389505404848632	0.02396905995072823	-0.5792442912080412	1.369772653012006	-1.793769251329724	-1.793769251329308	-0.5108013140026962	0.001215413001593547	-0.9412256183314249	-0.06015456935095075	-4.580471674315804e-07	-1.174785381981984e-07	6.335805423460225e-06	3.543483119696933e-07	-1.230497763462369e-06	-9.67987671592811e-07	-7.882955495379273e-07
0.52	-0.2316522983047531	0.03253351366903085	0.7630922326211811	1.028672660540749	-0.3627453285243299	0.005188559095549644	-0.4058636297877886	0.9947405472483255	0.9947405472483561	-0.02653411750815813	-0.1745266856080904	0.3292558499309802	0.1711627332811801	-0.7435537003985779	-0.1580758079996653	-0.5261604738779793	2.344272771442926	0.03511440886887476	0.5229188332324785	-0.2819828848452102	1.951322414643264	1.951322414643292	0.2945236868338686	-4.36318592490559e-05	0.5114124780047308	0.2702792845643784	-0.1110522862672449	0.02517693984566699	-0.002344771183831301	-0.2036227634216388	-0.007370914093866835	0.02234286572715556	0.1220137190408271	-26.29832721806919	-4.536807437211696	-0.1997182596049778	-0.4773074249210401	-446.1337335733673	-71.91202066503047	-3.791924838240562	0.3834509033424137	0.4197485497060778	-0.3196629346834813	-1.536803490141517	0.09646600422524189	-0.8002754987955147	1.424892926317162	-1.939166787334184	-1.939166787334158	-0.2247049648392965	-0.001979459863856788	-0.9581310225442016	0.03102689103758019	-4.289779664653308e-07	3.306202288857407e-07	6.216013885681976e-06	4.039915113327036e-07	-1.15784315686911e-06	-5.187708885832538e-07	-7.459671616899288e-07
0.53	-0.2390667898676151	0.0309740056730413	0.7578159907802468	1.05203392251385	-0.3623916988002103	0.0103841532647335	-0.4086130624638934	1.014153440642136	1.014153440642176	-0.0236097761994359	-0.1745266729944134	0.3343206481038041	0.1738629345823579	-0.7392454980408801	-0.1538069027703496	-0.5289616617734267	2.327658352349403	0.03560940905412763	0.5161541838579894	-0.2678909007499896	1.930982265707909	1.930982265707926	0.2903357161583675	3.119574533232589e-05	0.5014834745980488	0.2697137699078527	-0.1156655148187035	0.02612215971340412	-0.002739427920063356	-0.2062983016406672	-0.008750039670507727	0.02250433158929616	0.1255145555292375	-26.92812587057858	-4.38247600430036	-0.3547488496722713	-0.3814445056794614	-449.5434855131944	-71.91144691173629	-3.25865870835867	0.4693499766381165	0.43338078742561	-0.2416357728676707	-1.771998447409647	0.02472287451044074	-0.622109304763462	1.403263594882862	-2.122393961717562	-2.122393961719315	-0.517072444829586	0.01116191483508346	-1.019826260527578	-0.1082448205892858	-4.032501897689455e-07	6.556109835461719e-07	6.090959628906636e-06	4.36772708977441e-07	-1.088929735583328e-06	-1.413825476547883e-07	-7.140117265959583e-07
